<svg width="16" height="16" viewBox="0 0 16 16" fill="none" xmlns="http://www.w3.org/2000/svg">
    <path d="M14.293 15.707a1 1 0 0 0 1.414-1.414l-1.414 1.414zm-3.253-6.08a1 1 0 1 0-1.414 1.413l1.414-1.414zm4.667 4.666L11.04 9.626 9.626 11.04l4.667 4.667 1.414-1.414zM10.89 6.444a4.444 4.444 0 0 1-4.445 4.445v2a6.444 6.444 0 0 0 6.445-6.445h-2zM6.444 10.89A4.444 4.444 0 0 1 2 6.444H0a6.444 6.444 0 0 0 6.444 6.445v-2zM2 6.444A4.444 4.444 0 0 1 6.444 2V0A6.444 6.444 0 0 0 0 6.444h2zM6.444 2a4.444 4.444 0 0 1 4.445 4.444h2A6.444 6.444 0 0 0 6.444 0v2z" fill="#fff"/>
</svg>
